<svg width="17" height="16" viewBox="0 0 17 16" fill="none" xmlns="http://www.w3.org/2000/svg">
<path d="M7.46597 0.557464C7.83278 -0.185782 8.89262 -0.185781 9.25944 0.557464L11.069 4.22395C11.2146 4.51909 11.4962 4.72366 11.8219 4.77099L15.8681 5.35894C16.6883 5.47813 17.0158 6.4861 16.4223 7.06463L13.4945 9.9186C13.2588 10.1483 13.1512 10.4793 13.2069 10.8037L13.898 14.8336C14.0381 15.6505 13.1807 16.2735 12.4471 15.8878L8.82804 13.9851C8.53672 13.832 8.18868 13.832 7.89736 13.9851L4.27832 15.8878C3.54469 16.2735 2.68726 15.6505 2.82737 14.8336L3.51855 10.8037C3.57418 10.4793 3.46664 10.1483 3.23095 9.9186L0.303086 7.06463C-0.290431 6.4861 0.0370791 5.47813 0.857299 5.35894L4.90351 4.77099C5.22922 4.72366 5.51078 4.51909 5.65645 4.22395L7.46597 0.557464Z" fill="#2B2B2B"/>
</svg>
